<svg width="192" height="109" viewBox="0 0 192 109" fill="none" xmlns="http://www.w3.org/2000/svg">
<g clip-path="url(#clip0)">
<rect width="192" height="109" fill="#D7E5FB"/>
<g clip-path="url(#clip1)">
<path d="M5.82671 82.5043C6.34109 82.5043 6.85444 82.5541 7.35852 82.6534C7.73863 80.8068 8.96758 79.2316 10.6931 78.379C12.4182 77.5264 14.4499 77.4906 16.206 78.2817C17.7951 74.021 22.6319 71.8212 27.0093 73.368C31.3867 74.9147 33.6468 79.623 32.0576 83.8833C35.8921 84.0013 38.921 87.0905 38.8637 90.8241C38.806 94.5581 35.683 97.5571 31.8464 97.5631H5.82671C1.55476 97.5631 -1.90889 94.1921 -1.90889 90.0337C-1.90889 85.8753 1.55476 82.5043 5.82671 82.5043Z" fill="white"/>
</g>
<path d="M188.36 20.4652C187.918 20.4652 187.478 20.509 187.045 20.5965C186.719 18.9695 185.664 17.5815 184.182 16.8303C182.702 16.0791 180.958 16.0476 179.45 16.7446C178.086 12.9905 173.934 11.0522 170.177 12.4151C166.419 13.778 164.479 17.9264 165.843 21.6802C162.552 21.7842 159.951 24.5061 160.001 27.7958C160.05 31.0858 162.731 33.7282 166.024 33.7335H188.36C192.027 33.7335 195 30.7633 195 27.0993C195 23.4353 192.027 20.4652 188.36 20.4652Z" fill="white"/>
<path d="M159.304 64.7414C159.688 62.3186 158.032 60.0433 155.605 59.6595L118.802 53.8391C116.375 53.4553 114.096 55.1082 113.712 57.5311L110.144 80.013C109.759 82.4358 111.415 84.7111 113.842 85.0949L150.645 90.9153C153.072 91.2991 155.351 89.6462 155.736 87.2233L159.304 64.7414Z" fill="#93BEF5"/>
<path fill-rule="evenodd" clip-rule="evenodd" d="M134.631 77.4149C135.139 77.4952 135.616 77.1485 135.697 76.6405L136.134 73.8872L138.895 74.3238C139.402 74.4039 139.879 74.0578 139.959 73.5506C140.04 73.0435 139.694 72.5673 139.187 72.4871L136.425 72.0505L136.862 69.297C136.943 68.789 136.596 68.312 136.088 68.2317C135.58 68.1514 135.103 68.4981 135.022 69.0061L134.585 71.7597L131.824 71.3231C131.317 71.2429 130.841 71.589 130.76 72.0962C130.68 72.6033 131.026 73.0795 131.533 73.1597L134.294 73.5963L133.857 76.3496C133.777 76.8576 134.123 77.3345 134.631 77.4149Z" fill="white"/>
<path d="M39.8442 30.0966C39.4596 27.6738 41.1155 25.3986 43.5425 25.0147L80.3455 19.1944C82.7725 18.8105 85.0517 20.4635 85.4362 22.8863L89.0041 45.3682C89.3886 47.791 87.7328 50.0663 85.3058 50.4501L48.5028 56.2705C46.0758 56.6543 43.7966 55.0014 43.4121 52.5786L39.8442 30.0966Z" fill="#93BEF5"/>
<path d="M61.02 40.7109C61.02 35.8048 65.0041 31.8276 69.9187 31.8276H118.246C123.161 31.8276 127.145 35.8048 127.145 40.7108V68.2764C127.145 73.1824 123.161 77.1596 118.246 77.1596H69.9187C65.0041 77.1596 61.02 73.1824 61.02 68.2764V40.7109Z" fill="white"/>
<path fill-rule="evenodd" clip-rule="evenodd" d="M29.3949 30.8111L32.3546 30.9244C32.3062 31.8404 32.3492 32.7755 32.4922 33.7205L33.1321 37.9491L30.1994 38.3914L29.5595 34.1627C29.3886 33.0331 29.3368 31.9119 29.3949 30.8111ZM48.7014 13.9756L49.128 16.7947L45.0223 17.4138C44.0393 17.5621 43.0957 17.7991 42.198 18.1142L41.2104 15.4345C42.2891 15.0558 43.4206 14.7719 44.5957 14.5947L48.7014 13.9756ZM35.2504 18.918L37.2363 21.0145C35.7919 22.2858 34.614 23.8187 33.7754 25.5186L31.1011 24.3178C32.1066 22.2795 33.5184 20.4422 35.2504 18.918Z" fill="white"/>
<path d="M78.5002 51.9094C77.6718 51.9094 77.0002 52.4843 77.0002 53.1935V55.6166C77.0002 56.3258 77.6718 56.9007 78.5002 56.9007C79.3286 56.9007 80.0002 56.3258 80.0002 55.6166V53.1935C80.0002 52.4842 79.3286 51.9094 78.5002 51.9094Z" fill="#282E3E"/>
<path d="M98.4931 54.285C97.8774 53.7259 96.9435 53.7927 96.4069 54.4344C95.6733 55.3117 94.6138 55.8149 93.5003 55.8149C92.3868 55.8149 91.3275 55.3117 90.5937 54.4344C90.0571 53.7927 89.1232 53.7259 88.5075 54.285C87.8918 54.8443 87.8277 55.8176 88.3641 56.4592C89.6596 58.0086 91.5315 58.8971 93.5001 58.8971C95.4686 58.8971 97.3406 58.0086 98.636 56.4592C99.1729 55.8176 99.1088 54.8443 98.4931 54.285Z" fill="#282E3E"/>
<path d="M109.5 50.9111C107.019 50.9111 105 52.9563 105 55.4701C105 56.2602 105.632 56.9007 106.412 56.9007C107.192 56.9007 107.824 56.2602 107.824 55.4701C107.824 54.5339 108.576 53.7723 109.5 53.7723C110.424 53.7723 111.176 54.5339 111.176 55.4701C111.176 56.2602 111.808 56.9007 112.588 56.9007C113.368 56.9007 114 56.2602 114 55.4701C114 52.9565 111.982 50.9111 109.5 50.9111Z" fill="#282E3E"/>
<path d="M133.382 20.1835L133.729 21.5986C134.291 23.8925 135.888 25.5093 138.052 26.4649C138.256 26.6012 138.256 26.9017 138.052 27.0379C135.888 27.9934 134.291 29.6104 133.729 31.9043L133.382 33.3193C133.31 33.6105 132.896 33.6105 132.824 33.3193L132.477 31.9043C131.915 29.6104 130.318 27.9935 128.155 27.0379C127.95 26.9017 127.95 26.6013 128.155 26.4649C130.318 25.5095 131.915 23.8925 132.477 21.5986L132.824 20.1835C132.896 19.8923 133.31 19.8923 133.382 20.1835Z" fill="white"/>
<path d="M134.774 26.4646C133.403 25.8591 132.261 24.987 131.464 23.8462C130.667 24.987 129.525 25.8591 128.154 26.4646C127.949 26.6009 127.949 26.9013 128.154 27.0376C129.525 27.6431 130.667 28.5153 131.464 29.656C132.261 28.5153 133.403 27.6431 134.774 27.0376C134.979 26.9014 134.979 26.6009 134.774 26.4646Z" fill="white"/>
<path d="M53.7502 75.0621L54.0564 76.3111C54.5528 78.3357 55.9623 79.7627 57.8716 80.6061C58.0524 80.7263 58.0524 80.9916 57.8716 81.1118C55.9623 81.9551 54.5528 83.3822 54.0564 85.4068L53.7502 86.6557C53.6871 86.9128 53.3211 86.9128 53.258 86.6557L52.9518 85.4068C52.4553 83.3822 51.0459 81.9552 49.1366 81.1118C48.9558 80.9916 48.9558 80.7264 49.1366 80.6061C51.0459 79.7628 52.4553 78.3357 52.9518 76.3111L53.258 75.0621C53.3211 74.8051 53.6871 74.8051 53.7502 75.0621Z" fill="#93BEF5"/>
<path d="M54.9788 80.6059C53.7687 80.0715 52.7605 79.3018 52.0572 78.2949C51.3539 79.3018 50.3457 80.0715 49.1356 80.6059C48.9548 80.7262 48.9548 80.9913 49.1356 81.1117C50.3457 81.6461 51.3539 82.4158 52.0572 83.4226C52.7605 82.4158 53.7687 81.6461 54.9788 81.1117C55.1596 80.9914 55.1596 80.7262 54.9788 80.6059Z" fill="#93BEF5"/>
</g>
<defs>
<clipPath id="clip0">
<rect width="192" height="109" fill="white"/>
</clipPath>
<clipPath id="clip1">
<rect width="41" height="24.9131" fill="white" transform="translate(-2 72.873)"/>
</clipPath>
</defs>
</svg>
