<?xml version="1.0" encoding="utf-8"?>
<!-- Generator: Adobe Illustrator 24.0.2, SVG Export Plug-In . SVG Version: 6.00 Build 0)  -->
<svg version="1.1" id="Layer_1" xmlns="http://www.w3.org/2000/svg" xmlns:xlink="http://www.w3.org/1999/xlink" x="0px" y="0px"
	 viewBox="0 0 2202.8 1088.9" style="enable-background:new 0 0 2202.8 1088.9;" xml:space="preserve">
<style type="text/css">
	.st0{fill:#FF6363;}
	.st1{fill:#543864;}
	.st2{fill:#FFBD69;}
</style>
<g>
	<path class="st0" d="M37,961.4l44.7-20.5c4.2,15.3,12.1,26.9,23.4,34.9c11.2,8.1,25.7,12,43.3,12c16.8,0,30-4.6,39.8-13.8
		c9.8-9.1,14.7-21.4,14.7-36.8c0-20.1-16.8-38-50.5-53.7c-4.7-2.3-8.4-4.1-10.9-5.1c-38-18.4-63.4-35-76-49.9
		c-12.7-14.9-19-33.1-19-54.5c0-27.9,9.6-50.5,28.6-67.8c19.1-17.3,44.2-25.9,75.2-25.9c25.4,0,46.7,4.8,63.9,14.6
		c17.1,9.7,29,23.7,35.5,41.8l-43.8,22.5c-6.9-10.8-14.5-18.6-22.8-23.6c-8.3-5-17.8-7.5-28.4-7.5c-15,0-27.2,3.9-36,11.7
		c-8.9,7.8-13.3,18.2-13.3,31.3c0,20.6,19.5,39.8,58.5,57.5c3,1.4,5.4,2.6,7.1,3.2c34.1,15.7,57.5,30.9,70.2,45.7
		c12.7,14.9,19.1,33.5,19.1,55.7c0,32.4-10.3,58.1-30.9,77.2c-20.6,19.1-48.4,28.6-83.5,28.6c-29.4,0-53.4-6.7-72.2-20.1
		S42.8,986.3,37,961.4z"/>
	<polygon class="st0" points="291.4,1029.8 291.4,667.8 342.5,667.8 342.5,1029.8 	"/>
	<path class="st0" d="M382.7,712.7c0-8.6,3.2-15.9,9.5-22.2c6.3-6.2,13.9-9.3,22.8-9.3c9.1,0,16.7,3,22.8,9c6,6,9.1,13.5,9.1,22.6
		c0,9.1-3.1,16.6-9.1,22.8c-6.2,6.1-13.8,9.3-22.7,9.3c-8.8,0-16.4-3.2-22.8-9.5C385.9,729,382.7,721.5,382.7,712.7z M389.5,1029.8
		V808.4h51.1v221.4H389.5z"/>
	<path class="st0" d="M645.9,918.4c0-22.9-5.4-40.8-16.2-53.5c-10.7-12.8-25.8-19.3-45.1-19.3c-19.4,0-34.6,6.6-45.6,19.8
		c-11.1,13.1-16.7,31.5-16.7,54.8c0,23.5,5.3,41.7,16,54.5c10.7,12.8,25.8,19.2,45.3,19.2c18.5,0,33.5-6.9,45-20.7
		C640.1,959.4,645.9,941.2,645.9,918.4z M644.4,667.8h51.1v362.1h-51.1v-28.6c-9.1,12.7-19.8,22.2-32,28.4
		c-12.2,6.2-26.1,9.3-41.9,9.3c-31.6,0-56.5-10.7-74.6-32.2c-18.2-21.3-27.2-50.7-27.2-87.9c0-35.3,9.2-63.9,27.8-85.5
		c18.6-21.7,42.8-32.6,72.7-32.6c18.3,0,33.9,3.7,46.8,11.3c13,7.5,22.4,18.4,28.4,32.4V667.8z"/>
	<path class="st0" d="M952.9,926.5H774.3c1.3,20.8,7.5,36.9,18.7,48.6c11.1,11.6,26,17.5,44.6,17.5c16.5,0,30.2-3.5,41.2-10.3
		c11-6.9,20.6-17.9,28.8-33.3l42.9,23.8c-12.5,22.4-28.1,38.9-46.7,49.8c-18.5,10.9-40.3,16.4-65.2,16.4
		c-35.9,0-64.4-10.8-85.6-32.4c-21.2-21.7-31.8-50.6-31.8-86.7c0-34.7,10.9-63.2,32.9-85.6c21.9-22.3,50.1-33.5,84.5-33.5
		c35.9,0,64,10.2,84.2,30.6c20.1,20.4,30.2,49,30.2,85.7V926.5z M899.8,892.5c-2-15.8-8.2-28-18.4-36.2
		c-10.2-8.4-24.2-12.5-41.9-12.5c-16.9,0-30.4,4-40.5,12.1c-10.2,8.1-17.3,20.4-21.5,36.7H899.8z"/>
	<path class="st0" d="M952.1,989.7l42.4-23c3.1,11.1,8.9,19.5,17.5,25.3c8.4,5.9,19.4,8.7,32.7,8.7c11.5,0,20.5-2.6,27-7.8
		c6.5-5.2,9.8-12.4,9.8-21.4c0-12-11.6-22.3-34.8-30.9c-7.9-2.8-13.9-5.1-18.1-7c-23.9-9.8-40.7-19.7-50.2-29.9
		c-9.5-10.1-14.2-22.4-14.2-36.9c0-19.7,7.8-35.8,23.4-48.1c15.7-12.3,36.4-18.4,62.1-18.4c17.3,0,32.1,3.2,44.4,9.5
		c12.3,6.4,21.3,15.3,27,27l-36.3,24.8c-2.6-7-7.3-12.6-14-16.8c-6.7-4.1-14.4-6.2-23.2-6.2c-9.7,0-17.5,2.3-23.4,6.9
		c-5.9,4.6-8.8,10.8-8.8,18.4c0,11.5,13.2,22,39.5,31.5c8.4,2.9,14.8,5.4,19.3,7.2c20.6,8.1,35.3,17.2,44.3,27.4
		c8.8,10.2,13.2,23,13.2,38.2c0,22.2-8.1,39.5-24.3,52c-16.2,12.5-38.5,18.8-66.9,18.8c-21.8,0-40-4.1-54.4-12.1
		C971.5,1018.7,960.2,1006.3,952.1,989.7z"/>
	<path class="st1" d="M1205.9,1029.8h-51.1V808.4h48.1v36.3c10.2-15.5,21.8-26.8,34.8-33.8c12.9-7.1,28.2-10.6,45.8-10.6
		c17.4,0,31.9,3.6,43.3,10.8c11.5,7.2,20.2,18.4,26.2,33.2c11.8-15.3,24.4-26.5,37.6-33.5c13.3-7,28.4-10.5,45.4-10.5
		c14.8,0,27.7,2.7,38.7,8.1c11,5.4,19.5,13.2,25.6,23.5c2.9,4.8,5,10.6,6.3,17.3c1.4,6.7,2,16.3,2,28.7v17.7v134.3h-51.1V916.1
		c0-29.8-3.3-49.4-9.6-58.7c-6.3-9.4-17.7-14.1-34-14.1c-20.1,0-34.5,6.4-43,19.1c-8.6,12.6-12.9,34.9-12.9,66.6v100.9h-51.6V916.1
		c0-27.4-3.3-46.4-10-57c-6.7-10.6-18.3-15.8-34.6-15.8c-10,0-19.2,2.2-27.5,6.8c-8.4,4.6-15,10.8-19.9,18.6
		c-3.1,5.2-5.3,11.5-6.6,18.9c-1.2,7.5-1.9,21.3-1.9,41.3V1029.8z"/>
	<path class="st1" d="M1759.2,1029.8H1708v-28.6c-9.1,12.7-19.8,22.2-31.9,28.4c-12.3,6.2-26.2,9.3-41.9,9.3
		c-31.6,0-56.5-10.7-74.6-32.2c-18.2-21.3-27.2-50.7-27.2-87.9c0-35.3,9.3-63.9,27.9-85.5c18.5-21.7,42.8-32.6,72.6-32.6
		c18.3,0,33.9,3.7,46.9,11.3c12.9,7.5,22.4,18.4,28.4,32.4v-36.1h51.2V1029.8z M1709.4,918.4c0-22.9-5.4-40.8-16.2-53.5
		c-10.8-12.8-25.8-19.3-45.1-19.3c-19.4,0-34.6,6.6-45.6,19.8c-11.1,13.1-16.7,31.5-16.7,54.8c0,23.5,5.3,41.7,16,54.5
		c10.7,12.8,25.8,19.2,45.3,19.2c18.5,0,33.4-6.9,44.9-20.8C1703.7,959.3,1709.4,941.1,1709.4,918.4z"/>
	<path class="st1" d="M1852.3,843.8c5.6-14.7,12.8-25.5,21.8-32.6c9.1-7,20.3-10.5,33.7-10.5c7.2,0,14.4,0.9,21.3,2.6
		c7,1.7,13.9,4.2,20.7,7.4l-18.4,43.1c-4.5-3.1-9.2-5.4-14.3-6.8c-5.2-1.5-10.9-2.3-17.1-2.3c-17.1,0-29.2,6.7-36.6,20.2
		c-7.4,13.5-11.1,36.1-11.1,67.8v97.1h-51.1V807.9h51.1V843.8z"/>
	<path class="st1" d="M2165.7,926.5h-178.6c1.3,20.8,7.5,36.9,18.7,48.6c11.1,11.6,26,17.5,44.6,17.5c16.5,0,30.2-3.5,41.2-10.3
		c11-6.9,20.6-17.9,28.8-33.3l42.9,23.8c-12.5,22.4-28.1,38.9-46.7,49.8c-18.5,10.9-40.3,16.4-65.2,16.4
		c-35.9,0-64.4-10.8-85.6-32.4c-21.2-21.7-31.8-50.6-31.8-86.7c0-34.7,10.9-63.2,32.9-85.6c21.9-22.3,50.1-33.5,84.5-33.5
		c35.9,0,64,10.2,84.2,30.6c20.1,20.4,30.2,49,30.2,85.7V926.5z M2112.7,892.5c-2-15.8-8.2-28-18.4-36.2
		c-10.2-8.4-24.2-12.5-41.9-12.5c-16.9,0-30.4,4-40.5,12.1c-10.2,8.1-17.3,20.4-21.5,36.7H2112.7z"/>
	<g>
		<path class="st0" d="M1509.6,370.8v305h307.8C1811.2,510.4,1676.5,377,1509.6,370.8z"/>
	</g>
	<g>
		<path class="st2" d="M1509.6,41.6v305h307.8C1811.2,181.2,1676.5,47.8,1509.6,41.6z"/>
	</g>
	<g>
		<path class="st2" d="M1177.6,346.6h307.8v-305C1318.5,47.8,1183.8,181.2,1177.6,346.6z"/>
	</g>
	<g>
		<path class="st2" d="M1485.4,675.6v-305h-307.8C1183.8,536,1318.5,669.4,1485.4,675.6z"/>
	</g>
	<g>
		<polygon class="st1" points="2149.9,346.6 2149.9,58.3 1858.9,346.6 		"/>
	</g>
	<g>
		<rect x="1841.8" y="370.6" class="st1" width="308" height="305.2"/>
	</g>
</g>
</svg>
