<?xml version="1.0" standalone="no"?>
<!DOCTYPE svg PUBLIC "-//W3C//DTD SVG 20010904//EN"
 "http://www.w3.org/TR/2001/REC-SVG-20010904/DTD/svg10.dtd">
<svg version="1.0" xmlns="http://www.w3.org/2000/svg"
 width="1361.000000pt" height="704.000000pt" viewBox="0 0 1361.000000 704.000000"
 preserveAspectRatio="xMidYMid meet">
<metadata>
Created by potrace 1.16, written by Peter Selinger 2001-2019
</metadata>
<g transform="translate(0.000000,704.000000) scale(0.100000,-0.100000)"
fill="#000000" stroke="none">
<path d="M13605 4830 c0 -1218 1 -1717 2 -1108 2 610 2 1606 0 2215 -1 610 -2
111 -2 -1107z"/>
<path d="M5373 3410 c-42 -25 -60 -84 -40 -132 19 -45 39 -60 92 -66 48 -5 95
16 95 43 0 17 -35 21 -45 5 -3 -5 -21 -10 -40 -10 -59 0 -88 77 -45 120 21 21
74 27 85 10 11 -18 47 -12 43 7 -8 42 -92 55 -145 23z"/>
<path d="M5560 3320 c0 -87 3 -110 14 -110 18 0 26 22 26 75 0 36 4 45 21 50
30 10 37 -2 41 -65 2 -43 7 -56 21 -58 16 -3 18 4 15 69 -4 84 -17 101 -68 82
-28 -11 -30 -10 -30 12 0 34 -10 55 -26 55 -11 0 -14 -23 -14 -110z"/>
<path d="M7247 3424 c-4 -4 -7 -23 -7 -43 0 -27 -3 -32 -12 -23 -17 17 -52 15
-78 -6 -30 -24 -33 -91 -6 -121 20 -23 65 -28 83 -10 8 8 13 8 17 0 4 -6 14
-11 22 -11 12 0 14 18 12 107 -3 98 -11 127 -31 107z"/>
<path d="M5766 3349 c-20 -16 -26 -29 -26 -58 0 -49 32 -81 82 -81 70 0 103
86 53 135 -30 31 -73 32 -109 4z"/>
<path d="M5956 3349 c-20 -16 -26 -29 -26 -58 0 -74 83 -109 135 -56 73 72
-28 178 -109 114z"/>
<path d="M6299 3351 c-18 -14 -24 -29 -24 -61 0 -32 6 -47 24 -61 35 -28 111
-24 111 6 0 10 -10 12 -35 8 -35 -6 -70 11 -59 28 3 5 30 9 60 9 48 0 54 2 54
20 0 31 -44 70 -78 70 -17 0 -40 -9 -53 -19z"/>
<path d="M6568 3359 c-30 -17 -20 -28 25 -26 37 2 42 -1 45 -21 3 -20 1 -21
-20 -12 -38 18 -78 -2 -78 -39 0 -40 17 -50 83 -48 l57 1 0 62 c0 44 -5 67
-16 78 -17 18 -70 21 -96 5z"/>
<path d="M7346 3349 c-35 -27 -36 -86 -3 -117 24 -23 80 -29 106 -13 22 14 5
28 -29 23 -29 -4 -60 11 -60 29 0 5 25 9 55 9 52 0 55 1 55 25 0 58 -73 84
-124 44z"/>
<path d="M7874 3357 c-3 -8 -3 -56 -2 -108 2 -76 6 -94 18 -94 10 0 17 13 20
40 3 25 8 35 13 28 9 -14 55 -17 73 -5 37 24 43 87 13 126 -22 27 -48 33 -79
16 -13 -7 -21 -7 -25 0 -9 14 -25 12 -31 -3z"/>
<path d="M8092 3354 c-32 -22 -43 -57 -31 -94 17 -47 72 -65 120 -39 26 13 14
31 -16 23 -31 -8 -65 4 -65 22 0 10 14 14 55 14 52 0 55 2 55 24 0 29 -42 66
-74 66 -12 0 -32 -7 -44 -16z"/>
</g>
</svg>
